<svg xmlns="http://www.w3.org/2000/svg" width="1200" height="675" viewBox="0 0 1200 675" role="img" aria-label="Abstract branching render paths">
  <rect width="1200" height="675" fill="#F0FDF4"/>
  <rect x="88" y="244" width="252" height="188" rx="34" fill="#059669"/>
  <rect x="860" y="104" width="252" height="188" rx="34" fill="#FFFFFF" stroke="#065F46" stroke-width="8"/>
  <rect x="860" y="384" width="252" height="188" rx="34" fill="#FFFFFF" stroke="#059669" stroke-width="8"/>
  <circle cx="214" cy="338" r="54" fill="#FFFFFF" opacity="0.94"/>
  <path d="M340 338h204c74 0 92-140 170-140h146" fill="none" stroke="#065F46" stroke-width="18" stroke-linecap="round"/>
  <path d="M340 338h204c74 0 92 140 170 140h146" fill="none" stroke="#059669" stroke-width="18" stroke-linecap="round"/>
  <path d="m828 168 32 30-32 30M828 448l32 30-32 30" fill="none" stroke="#64748B" stroke-width="14" stroke-linecap="round" stroke-linejoin="round"/>
  <rect x="916" y="158" width="140" height="24" rx="12" fill="#065F46"/>
  <rect x="916" y="206" width="96" height="18" rx="9" fill="#A7F3D0"/>
  <circle cx="936" cy="452" r="28" fill="#A7F3D0"/>
  <circle cx="1000" cy="452" r="28" fill="#059669"/>
  <circle cx="1064" cy="452" r="28" fill="#065F46"/>
  <rect x="916" y="510" width="148" height="18" rx="9" fill="#A7F3D0"/>
</svg>
